<svg width="40" height="40" viewBox="0 0 40 40" fill="none" xmlns="http://www.w3.org/2000/svg">
<path d="M39.8915 19.9998C39.8915 30.9874 30.9845 39.8946 19.9971 39.8946C9.00955 39.8946 0.102482 30.9874 0.102482 19.9998C0.102482 9.01242 9.00955 0.105347 19.9971 0.105347C30.9844 0.105347 39.8915 9.01242 39.8915 19.9998Z" fill="#6374C3"/>
<path d="M19.9332 10.7689L19.8103 11.1866V23.3063L19.9332 23.4289L25.559 20.1035L19.9332 10.7689Z" fill="white"/>
<path d="M19.9332 10.7689L14.3074 20.1035L19.9332 23.429V17.5464V10.7689Z" fill="white"/>
<path d="M19.9327 25.2589L19.8634 25.3433V29.6606L19.9327 29.8629L25.5619 21.9352L19.9327 25.2589Z" fill="white"/>
<path d="M19.9332 29.8629V25.2589L14.3074 21.9352L19.9332 29.8629Z" fill="white"/>
<path d="M19.9334 23.4299L25.5592 20.1046L19.9334 17.5475V23.4299Z" fill="white"/>
<path d="M14.3074 20.1046L19.9331 23.43V17.5475L14.3074 20.1046Z" fill="white"/>
</svg>
