<svg width="1163" height="216" viewBox="0 0 1163 216" fill="none" xmlns="http://www.w3.org/2000/svg">
<mask id="mask0_1_450" style="mask-type:alpha" maskUnits="userSpaceOnUse" x="-22" y="0" width="1200" height="216">
<rect x="-22" width="1200" height="216" rx="16" fill="#3671E9"/>
</mask>
<g mask="url(#mask0_1_450)">
<path d="M1162.65 155.394C1165.5 135.967 1150.76 125.453 1130.42 118.483L1137.05 92.0848L1121.05 88.0851L1114.65 113.797C1110.42 112.769 1106.08 111.74 1101.74 110.826L1108.14 84.9997L1092.14 81L1085.62 107.284C1082.08 106.484 1078.65 105.684 1075.34 104.884V104.769L1053.17 99.2842L1048.94 116.426C1048.94 116.426 1060.83 119.168 1060.6 119.282C1067.11 120.882 1068.25 125.225 1068.02 128.653L1060.48 158.708C1060.94 158.822 1061.51 158.936 1062.2 159.279C1061.63 159.165 1061.05 159.051 1060.48 158.822L1049.97 200.876C1049.17 202.818 1047.11 205.79 1042.66 204.647C1042.77 204.875 1031 201.79 1031 201.79L1023 220.188L1043.91 225.445C1047.8 226.474 1051.57 227.388 1055.34 228.416L1048.71 255.043L1064.71 259.042L1071.34 232.644C1075.68 233.787 1080.02 234.93 1084.14 235.958L1077.62 262.242L1093.62 266.242L1100.25 239.615C1127.68 244.758 1148.25 242.701 1156.82 217.903C1163.79 198.019 1156.47 186.477 1142.08 178.935C1152.7 176.535 1160.59 169.564 1162.65 155.394ZM1125.96 206.818C1121.05 226.702 1087.45 215.96 1076.6 213.217L1085.39 177.906C1096.25 180.649 1131.22 186.02 1125.96 206.818ZM1130.99 155.051C1126.42 173.221 1098.54 163.964 1089.51 161.679L1097.51 129.682C1106.54 131.967 1135.68 136.195 1130.99 155.051Z" fill="url(#paint0_linear_1_450)"/>
<path d="M79.4099 155.686L0 108.823L79.3614 220.698L158.812 108.823L79.3614 155.686H79.4099ZM80.5901 -38L1.21261 93.7462L80.5901 140.69L160 93.7946L80.5901 -38Z" fill="url(#paint1_linear_1_450)"/>
</g>
<defs>
<linearGradient id="paint0_linear_1_450" x1="1093" y1="81" x2="1093" y2="266.242" gradientUnits="userSpaceOnUse">
<stop stop-color="white" stop-opacity="0.16"/>
<stop offset="1" stop-color="white" stop-opacity="0"/>
</linearGradient>
<linearGradient id="paint1_linear_1_450" x1="80" y1="-38" x2="80" y2="186.414" gradientUnits="userSpaceOnUse">
<stop stop-color="white" stop-opacity="0.16"/>
<stop offset="1" stop-color="white" stop-opacity="0"/>
</linearGradient>
</defs>
</svg>
