<svg width="502" height="138" viewBox="0 0 502 138" fill="none" xmlns="http://www.w3.org/2000/svg">
<path d="M34.9362 57.1747C23.0173 57.1747 1.13026 72.1653 1.13026 72.1653V137.624H501.202V22.1966C501.202 22.1966 480.153 31.3531 470.586 28.1929C457.098 23.738 444.434 2.35902 436.142 1.70933C423.385 0.709826 427.212 7.20601 401.06 7.20599C376.184 7.20597 387.371 20.1978 362.79 20.1978C349.331 20.1978 329.621 31.1938 329.621 31.1938H290.713C272.215 31.1938 268.445 63.5168 247.977 61.175C228.139 58.9053 228.842 53.6769 212.895 53.6769C197.299 53.6769 194.896 61.3241 179.09 59.6731C159.954 57.6744 160.592 36.1878 134.44 36.1878C102.548 36.1878 96.8073 62.6712 71.2934 64.67C52.5614 66.1375 55.5079 57.1747 34.9362 57.1747Z" fill="url(#paint0_linear_1_441)"/>
<path d="M1.13026 72.6152C1.13026 72.6152 23.0173 57.613 34.9362 57.613C55.5079 57.613 52.5614 66.5827 71.2934 65.1141C96.8073 63.1138 102.548 36.61 134.44 36.61C160.592 36.61 159.954 58.1131 179.09 60.1134C194.896 61.7657 197.299 54.1125 212.895 54.1125C228.842 54.1125 228.139 59.3449 247.977 61.6165C268.445 63.96 272.215 31.6121 290.713 31.6121C306.314 31.6121 329.621 31.6121 329.621 31.6121C329.621 31.6121 349.331 20.6077 362.79 20.6077C387.371 20.6077 376.184 7.6058 401.06 7.60582C427.212 7.60584 423.385 1.10465 436.142 2.10493C444.434 2.75511 457.098 24.1506 470.586 28.6089C480.153 31.7715 501.202 22.608 501.202 22.608" stroke="#6EDCB5" stroke-width="4"/>
<defs>
<linearGradient id="paint0_linear_1_441" x1="251.166" y1="1.60478" x2="251.166" y2="137.624" gradientUnits="userSpaceOnUse">
<stop stop-color="#6EDCB5" stop-opacity="0.4"/>
<stop offset="1" stop-color="#6EDCB5" stop-opacity="0"/>
</linearGradient>
</defs>
</svg>
