<svg width="40" height="40" viewBox="0 0 40 40" fill="none" xmlns="http://www.w3.org/2000/svg">
<path d="M20 39.9999C31.0456 39.9999 39.9999 31.0456 39.9999 20C39.9999 8.95429 31.0456 0 20 0C8.95429 0 0 8.95429 0 20C0 31.0456 8.95429 39.9999 20 39.9999Z" fill="white" fill-opacity="0.1"/>
<path d="M18.8424 28.0462C14.9125 27.4707 11.8965 24.0828 11.8965 19.9891C11.8965 15.8954 14.9125 12.5075 18.8424 11.9322V7.69237C12.5856 8.29083 7.69237 13.5677 7.69237 19.9891C7.69237 26.4104 12.5856 31.687 18.8424 32.2858V28.0462Z" fill="white"/>
<path d="M26.9984 12L26.8892 12.3711V23.1392L26.9984 23.2482L31.9968 20.2936L26.9984 12Z" fill="white"/>
<path d="M26.9984 12L22 20.2936L26.9984 23.2483V18.0217V12Z" fill="white"/>
<path d="M26.9986 24.8742L26.9371 24.9492V28.7851L26.9986 28.9647L32.0001 21.9211L26.9986 24.8742Z" fill="white"/>
<path d="M26.9984 28.9648V24.8742L22 21.9211L26.9984 28.9648Z" fill="white"/>
<path d="M26.9984 23.2482L31.9968 20.2936L26.9984 18.0217V23.2482Z" fill="white"/>
<path d="M22 20.2936L26.9984 23.2482V18.0217L22 20.2936Z" fill="white"/>
</svg>
